<mxfile host="Electron" agent="Mozilla/5.0 (Windows NT 10.0; Win64; x64) AppleWebKit/537.36 (KHTML, like Gecko) draw.io/27.0.5 Chrome/134.0.6998.205 Electron/35.3.0 Safari/537.36" version="27.0.5">
  <diagram name="Page-1" id="jz8O4wpl_f1jFNlkTVth">
    <mxGraphModel dx="2073" dy="1415" grid="1" gridSize="10" guides="1" tooltips="1" connect="1" arrows="1" fold="1" page="1" pageScale="1" pageWidth="850" pageHeight="1100" math="0" shadow="0">
      <root>
        <mxCell id="0" />
        <mxCell id="1" parent="0" />
        <mxCell id="ivwe20rVrnVRDWFouDJh-6" style="edgeStyle=orthogonalEdgeStyle;rounded=0;orthogonalLoop=1;jettySize=auto;html=1;exitX=0.5;exitY=1;exitDx=0;exitDy=0;entryX=0.5;entryY=0;entryDx=0;entryDy=0;" edge="1" parent="1" source="ivwe20rVrnVRDWFouDJh-2" target="ivwe20rVrnVRDWFouDJh-5">
          <mxGeometry relative="1" as="geometry" />
        </mxCell>
        <mxCell id="ivwe20rVrnVRDWFouDJh-2" value="&lt;b&gt;main()&lt;/b&gt;&lt;div&gt;&lt;b&gt;&lt;br&gt;&lt;/b&gt;&lt;/div&gt;&lt;div&gt;Runs program and calls main sequence&lt;/div&gt;" style="rounded=1;whiteSpace=wrap;html=1;fillColor=#f8cecc;strokeColor=#b85450;" vertex="1" parent="1">
          <mxGeometry x="190" y="560" width="180" height="80" as="geometry" />
        </mxCell>
        <mxCell id="ivwe20rVrnVRDWFouDJh-8" style="edgeStyle=orthogonalEdgeStyle;rounded=0;orthogonalLoop=1;jettySize=auto;html=1;exitX=1;exitY=0.5;exitDx=0;exitDy=0;entryX=0;entryY=0.5;entryDx=0;entryDy=0;" edge="1" parent="1" source="ivwe20rVrnVRDWFouDJh-5" target="ivwe20rVrnVRDWFouDJh-7">
          <mxGeometry relative="1" as="geometry" />
        </mxCell>
        <mxCell id="ivwe20rVrnVRDWFouDJh-10" style="edgeStyle=orthogonalEdgeStyle;rounded=0;orthogonalLoop=1;jettySize=auto;html=1;exitX=0.5;exitY=1;exitDx=0;exitDy=0;entryX=0.5;entryY=0;entryDx=0;entryDy=0;" edge="1" parent="1" source="ivwe20rVrnVRDWFouDJh-5" target="ivwe20rVrnVRDWFouDJh-9">
          <mxGeometry relative="1" as="geometry" />
        </mxCell>
        <mxCell id="ivwe20rVrnVRDWFouDJh-5" value="&lt;b&gt;load_penguins(csv_f)&lt;/b&gt;&lt;div&gt;&lt;b&gt;&lt;br&gt;&lt;/b&gt;&lt;/div&gt;&lt;div&gt;Reads CSV and converts into a nested dictionary and list&lt;/div&gt;" style="rounded=1;whiteSpace=wrap;html=1;fillColor=#f8cecc;strokeColor=#b85450;" vertex="1" parent="1">
          <mxGeometry x="190" y="680" width="180" height="80" as="geometry" />
        </mxCell>
        <mxCell id="ivwe20rVrnVRDWFouDJh-7" value="&lt;b&gt;Nested Dictionary Structure:&lt;/b&gt;&lt;div&gt;&lt;b&gt;&lt;br&gt;&lt;/b&gt;&lt;/div&gt;&lt;div style=&quot;text-align: left;&quot;&gt;- Island_A&lt;/div&gt;&lt;div&gt;&lt;div style=&quot;text-align: left;&quot;&gt;&lt;span style=&quot;background-color: transparent; color: light-dark(rgb(0, 0, 0), rgb(255, 255, 255));&quot;&gt;&lt;span style=&quot;white-space: pre;&quot;&gt;&#x9;&lt;/span&gt;- Species_1&lt;/span&gt;&lt;/div&gt;&lt;div style=&quot;text-align: left;&quot;&gt;&lt;span style=&quot;white-space: pre;&quot;&gt;&#x9;&lt;/span&gt;&lt;span style=&quot;white-space: pre;&quot;&gt;&#x9;&lt;/span&gt;-&amp;nbsp;&lt;span style=&quot;background-color: transparent;&quot;&gt;body_mass_g&lt;/span&gt;&lt;br&gt;&lt;/div&gt;&lt;div style=&quot;text-align: left;&quot;&gt;&lt;span style=&quot;background-color: transparent;&quot;&gt;&lt;span style=&quot;white-space: pre;&quot;&gt;&#x9;&lt;/span&gt;&lt;span style=&quot;white-space: pre;&quot;&gt;&#x9;&lt;/span&gt;&lt;span style=&quot;white-space: pre;&quot;&gt;&#x9;&lt;/span&gt;- [list]&lt;br&gt;&lt;/span&gt;&lt;/div&gt;&lt;div style=&quot;text-align: left;&quot;&gt;&lt;span style=&quot;white-space: pre;&quot;&gt;&#x9;&lt;/span&gt;&lt;span style=&quot;white-space: pre;&quot;&gt;&#x9;&lt;/span&gt;- bill_length_mm&lt;/div&gt;&lt;span style=&quot;text-align: left; white-space: pre;&quot;&gt;&#x9;&lt;/span&gt;&lt;span style=&quot;text-align: left;&quot;&gt;- [list]&lt;/span&gt;&lt;div style=&quot;text-align: left;&quot;&gt;&lt;span style=&quot;white-space: pre;&quot;&gt;&#x9;&lt;/span&gt;&lt;span style=&quot;white-space: pre;&quot;&gt;&#x9;&lt;/span&gt;- bill_depth_mm&lt;/div&gt;&lt;span style=&quot;text-align: left; white-space: pre;&quot;&gt;&#x9;&lt;/span&gt;&lt;span style=&quot;text-align: left;&quot;&gt;- [list]&lt;/span&gt;&lt;div style=&quot;text-align: left;&quot;&gt;&lt;span style=&quot;white-space: pre;&quot;&gt;&#x9;&lt;/span&gt;&lt;span style=&quot;white-space: pre;&quot;&gt;&#x9;&lt;/span&gt;- flipper_length_mm&lt;/div&gt;&lt;/div&gt;&lt;div style=&quot;text-align: left;&quot;&gt;&lt;/div&gt;&lt;span style=&quot;text-align: left; white-space: pre;&quot;&gt;&#x9;&lt;/span&gt;&lt;span style=&quot;text-align: left;&quot;&gt;- [list]&lt;/span&gt;" style="rounded=1;whiteSpace=wrap;html=1;fillColor=#fff2cc;strokeColor=#d6b656;" vertex="1" parent="1">
          <mxGeometry x="425" y="680" width="255" height="200" as="geometry" />
        </mxCell>
        <mxCell id="ivwe20rVrnVRDWFouDJh-12" style="edgeStyle=orthogonalEdgeStyle;rounded=0;orthogonalLoop=1;jettySize=auto;html=1;exitX=1;exitY=0.5;exitDx=0;exitDy=0;entryX=0;entryY=0.5;entryDx=0;entryDy=0;" edge="1" parent="1" source="ivwe20rVrnVRDWFouDJh-9" target="ivwe20rVrnVRDWFouDJh-11">
          <mxGeometry relative="1" as="geometry" />
        </mxCell>
        <mxCell id="ivwe20rVrnVRDWFouDJh-14" style="edgeStyle=orthogonalEdgeStyle;rounded=0;orthogonalLoop=1;jettySize=auto;html=1;exitX=0.5;exitY=1;exitDx=0;exitDy=0;entryX=0.5;entryY=0;entryDx=0;entryDy=0;" edge="1" parent="1" source="ivwe20rVrnVRDWFouDJh-9" target="ivwe20rVrnVRDWFouDJh-13">
          <mxGeometry relative="1" as="geometry" />
        </mxCell>
        <mxCell id="ivwe20rVrnVRDWFouDJh-21" style="edgeStyle=orthogonalEdgeStyle;rounded=0;orthogonalLoop=1;jettySize=auto;html=1;exitX=0.75;exitY=1;exitDx=0;exitDy=0;entryX=0.5;entryY=0;entryDx=0;entryDy=0;" edge="1" parent="1" source="ivwe20rVrnVRDWFouDJh-9" target="ivwe20rVrnVRDWFouDJh-18">
          <mxGeometry relative="1" as="geometry">
            <Array as="points">
              <mxPoint x="325" y="1040" />
              <mxPoint x="426" y="1040" />
            </Array>
          </mxGeometry>
        </mxCell>
        <mxCell id="ivwe20rVrnVRDWFouDJh-22" style="edgeStyle=orthogonalEdgeStyle;rounded=0;orthogonalLoop=1;jettySize=auto;html=1;exitX=0.25;exitY=1;exitDx=0;exitDy=0;entryX=0.5;entryY=0;entryDx=0;entryDy=0;" edge="1" parent="1" source="ivwe20rVrnVRDWFouDJh-9" target="ivwe20rVrnVRDWFouDJh-17">
          <mxGeometry relative="1" as="geometry">
            <Array as="points">
              <mxPoint x="235" y="1040" />
              <mxPoint x="143" y="1040" />
            </Array>
          </mxGeometry>
        </mxCell>
        <mxCell id="ivwe20rVrnVRDWFouDJh-9" value="&lt;b&gt;command()&lt;/b&gt;&lt;div&gt;&lt;b&gt;&lt;br&gt;&lt;/b&gt;&lt;/div&gt;&lt;div&gt;Prompts input for type of calculation to perform.&lt;/div&gt;" style="rounded=1;whiteSpace=wrap;html=1;fillColor=#f8cecc;strokeColor=#b85450;" vertex="1" parent="1">
          <mxGeometry x="190" y="910" width="180" height="80" as="geometry" />
        </mxCell>
        <mxCell id="ivwe20rVrnVRDWFouDJh-11" value="&lt;b&gt;Command Format:&lt;/b&gt;&lt;div&gt;&lt;b&gt;&lt;br&gt;&lt;/b&gt;&lt;/div&gt;&lt;div&gt;[command] [island] [species] [parameter]&lt;/div&gt;&lt;div&gt;&lt;br&gt;&lt;/div&gt;&lt;div&gt;&lt;b&gt;E.g;&lt;br&gt;&lt;br&gt;&lt;/b&gt;&lt;/div&gt;&lt;div&gt;median Biscoe Adelie body_mass_g&lt;/div&gt;" style="rounded=1;whiteSpace=wrap;html=1;fillColor=#fff2cc;strokeColor=#d6b656;" vertex="1" parent="1">
          <mxGeometry x="425" y="910" width="255" height="120" as="geometry" />
        </mxCell>
        <mxCell id="ivwe20rVrnVRDWFouDJh-16" style="edgeStyle=orthogonalEdgeStyle;rounded=0;orthogonalLoop=1;jettySize=auto;html=1;exitX=0.5;exitY=1;exitDx=0;exitDy=0;entryX=0.5;entryY=0;entryDx=0;entryDy=0;" edge="1" parent="1" source="ivwe20rVrnVRDWFouDJh-13" target="ivwe20rVrnVRDWFouDJh-15">
          <mxGeometry relative="1" as="geometry" />
        </mxCell>
        <mxCell id="ivwe20rVrnVRDWFouDJh-13" value="&lt;b&gt;get_list(island, species, parameter)&lt;/b&gt;&lt;div&gt;&lt;b&gt;&lt;br&gt;&lt;/b&gt;&lt;/div&gt;&lt;div&gt;Loops through dictionary and assembles a list of corresponding values&lt;/div&gt;" style="rounded=1;whiteSpace=wrap;html=1;fillColor=#f8cecc;strokeColor=#b85450;" vertex="1" parent="1">
          <mxGeometry x="157.5" y="1060" width="245" height="90" as="geometry" />
        </mxCell>
        <mxCell id="ivwe20rVrnVRDWFouDJh-19" style="edgeStyle=orthogonalEdgeStyle;rounded=0;orthogonalLoop=1;jettySize=auto;html=1;exitX=0.5;exitY=1;exitDx=0;exitDy=0;entryX=0.5;entryY=0;entryDx=0;entryDy=0;" edge="1" parent="1" source="ivwe20rVrnVRDWFouDJh-15" target="ivwe20rVrnVRDWFouDJh-18">
          <mxGeometry relative="1" as="geometry" />
        </mxCell>
        <mxCell id="ivwe20rVrnVRDWFouDJh-23" style="edgeStyle=orthogonalEdgeStyle;rounded=0;orthogonalLoop=1;jettySize=auto;html=1;exitX=0.5;exitY=1;exitDx=0;exitDy=0;entryX=0.5;entryY=0;entryDx=0;entryDy=0;" edge="1" parent="1" source="ivwe20rVrnVRDWFouDJh-15" target="ivwe20rVrnVRDWFouDJh-17">
          <mxGeometry relative="1" as="geometry" />
        </mxCell>
        <mxCell id="ivwe20rVrnVRDWFouDJh-15" value="&lt;b&gt;calc(list, command)&lt;/b&gt;&lt;br&gt;&lt;div&gt;&lt;b&gt;&lt;br&gt;&lt;/b&gt;&lt;/div&gt;&lt;div&gt;Performs insturcted math operation&lt;/div&gt;&lt;div&gt;on the list&lt;/div&gt;" style="rounded=1;whiteSpace=wrap;html=1;fillColor=#f8cecc;strokeColor=#b85450;" vertex="1" parent="1">
          <mxGeometry x="157.5" y="1230" width="245" height="90" as="geometry" />
        </mxCell>
        <mxCell id="ivwe20rVrnVRDWFouDJh-26" style="edgeStyle=orthogonalEdgeStyle;rounded=0;orthogonalLoop=1;jettySize=auto;html=1;exitX=0.5;exitY=1;exitDx=0;exitDy=0;" edge="1" parent="1" source="ivwe20rVrnVRDWFouDJh-17">
          <mxGeometry relative="1" as="geometry">
            <mxPoint x="280" y="1540" as="targetPoint" />
          </mxGeometry>
        </mxCell>
        <mxCell id="ivwe20rVrnVRDWFouDJh-17" value="&lt;b&gt;command == median&lt;/b&gt;&lt;br&gt;&lt;div&gt;&lt;b&gt;&lt;br&gt;&lt;/b&gt;&lt;/div&gt;&lt;div&gt;Gets length of list and grabs the middle value, unless an even number where it gets the two middle values and calculates an average&lt;/div&gt;" style="rounded=1;whiteSpace=wrap;html=1;fillColor=#f8cecc;strokeColor=#b85450;" vertex="1" parent="1">
          <mxGeometry x="20" y="1370" width="245" height="120" as="geometry" />
        </mxCell>
        <mxCell id="ivwe20rVrnVRDWFouDJh-25" style="edgeStyle=orthogonalEdgeStyle;rounded=0;orthogonalLoop=1;jettySize=auto;html=1;exitX=0.5;exitY=1;exitDx=0;exitDy=0;entryX=0.5;entryY=0;entryDx=0;entryDy=0;" edge="1" parent="1" source="ivwe20rVrnVRDWFouDJh-18" target="ivwe20rVrnVRDWFouDJh-24">
          <mxGeometry relative="1" as="geometry" />
        </mxCell>
        <mxCell id="ivwe20rVrnVRDWFouDJh-18" value="&lt;b&gt;command == average&lt;/b&gt;&lt;br&gt;&lt;div&gt;&lt;b&gt;&lt;br&gt;&lt;/b&gt;&lt;/div&gt;&lt;div&gt;Gets length of list and sums all values. returns average.&lt;/div&gt;" style="rounded=1;whiteSpace=wrap;html=1;fillColor=#f8cecc;strokeColor=#b85450;" vertex="1" parent="1">
          <mxGeometry x="303" y="1370" width="245" height="120" as="geometry" />
        </mxCell>
        <mxCell id="ivwe20rVrnVRDWFouDJh-24" value="&lt;b&gt;format_return(command, statistic)&lt;/b&gt;&lt;br&gt;&lt;div&gt;&lt;b&gt;&lt;br&gt;&lt;/b&gt;&lt;/div&gt;&lt;div&gt;Formats returned value for readabilitiy&lt;/div&gt;" style="rounded=1;whiteSpace=wrap;html=1;fillColor=#f8cecc;strokeColor=#b85450;" vertex="1" parent="1">
          <mxGeometry x="157.5" y="1540" width="245" height="90" as="geometry" />
        </mxCell>
      </root>
    </mxGraphModel>
  </diagram>
</mxfile>
